<?xml version="1.0" encoding="utf-8"?>
<!-- Generator: Adobe Illustrator 27.0.0, SVG Export Plug-In . SVG Version: 6.00 Build 0)  -->
<svg version="1.1" id="Camada_1" xmlns="http://www.w3.org/2000/svg" xmlns:xlink="http://www.w3.org/1999/xlink" x="0px" y="0px"
	 viewBox="0 0 1080 1080" style="enable-background:new 0 0 1080 1080;" xml:space="preserve">
<style type="text/css">
	.st0{fill:#FFFFFF;}
	.st1{fill:#333333;}
</style>
<path class="st0" d="M859.6,1080H220.4C98.7,1080,0,981.3,0,859.6V220.4C0,98.7,98.7,0,220.4,0h639.2C981.3,0,1080,98.7,1080,220.4
	v639.2C1080,981.3,981.3,1080,859.6,1080z"/>
<path class="st1" d="M99.1,340.3h28.7V233.4h394.3L84.7,853.3v21.4h473.2v-28.5H127.8l430.2-612.8h176.6
	c53.7,0,120.8,14.9,151.4,48.9c30.7,34,36.4,84,36.4,100c0,16-3.8,61.3-36.4,97.2c-15.3,18.6-68.1,53.3-152.4,53.3H557.9v28.5H730
	c22.2,0,37-2.2,45.7-3.4l0.9-0.1l139.1,317.1h79.6v-28.5h-64.5C889.2,750.9,806.3,563.8,801.7,554c26.8-4.7,66.1-25.8,84.3-39.7
	c17.3-13.2,61.3-52.8,61.3-132.1c0-74.5-38.3-114.1-61.3-134c-24.5-21.1-87.2-43.4-151.4-43.4H99.1V340.3z"/>
</svg>
