<svg width="755" height="248" viewBox="0 0 755 248" fill="none" xmlns="http://www.w3.org/2000/svg">
<path d="M405 164H495V168H405V164Z" fill="white"/>
<path d="M408.065 61V56.3438L431.721 20.3125H414.034L413.471 26.1875H408.534V15.5H438.815V20.0312L415.034 56.2188H434.378L434.94 49.75H439.846V61H408.065Z" fill="white"/>
<path d="M472.571 61.6562C469.634 61.6562 466.998 61.0938 464.665 59.9688C462.332 58.8438 460.342 57.2604 458.696 55.2188C457.071 53.1562 455.821 50.7188 454.946 47.9062C454.092 45.0938 453.665 41.9896 453.665 38.5938V37.9375C453.665 34.5625 454.092 31.4688 454.946 28.6562C455.821 25.8229 457.071 23.375 458.696 21.3125C460.342 19.25 462.332 17.6562 464.665 16.5312C466.998 15.4062 469.634 14.8438 472.571 14.8438C475.675 14.8438 478.405 15.4062 480.759 16.5312C483.113 17.6562 485.082 19.25 486.665 21.3125C488.269 23.375 489.478 25.8229 490.29 28.6562C491.103 31.4688 491.509 34.5625 491.509 37.9375V38.5938C491.509 41.9896 491.103 45.0938 490.29 47.9062C489.478 50.7188 488.269 53.1562 486.665 55.2188C485.082 57.2604 483.113 58.8438 480.759 59.9688C478.405 61.0938 475.675 61.6562 472.571 61.6562ZM472.571 56.5312C475.592 56.5312 478.03 55.7812 479.884 54.2812C481.759 52.7812 483.134 50.6875 484.009 48C484.884 45.2917 485.321 42.1562 485.321 38.5938V37.875C485.321 34.3333 484.873 31.2292 483.978 28.5625C483.103 25.875 481.728 23.7812 479.853 22.2812C477.978 20.7604 475.55 20 472.571 20C469.842 20 467.53 20.7604 465.634 22.2812C463.738 23.8021 462.3 25.9062 461.321 28.5938C460.342 31.2604 459.853 34.3542 459.853 37.875V38.5938C459.853 42.1354 460.342 45.2604 461.321 47.9688C462.3 50.6562 463.738 52.7604 465.634 54.2812C467.53 55.7812 469.842 56.5312 472.571 56.5312Z" fill="white"/>
<path d="M516.203 61V57.0625L521.296 56.1875V20.1562H510.984L510.078 26.4688H505.453V15.5H543.265V26.4688H538.703L537.765 20.1562H527.453V56.1875L532.546 57.0625V61H516.203Z" fill="white"/>
<path d="M569.74 61V57.0625L574.834 56.1875V20.1562H564.521L563.615 26.4688H558.99V15.5H596.802V26.4688H592.24L591.302 20.1562H580.99V56.1875L586.084 57.0625V61H569.74Z" fill="white"/>
<path d="M612.059 61V57.0625L617.152 56.1875V20.3438L612.059 19.4688V15.5H628.402V19.4688L623.309 20.3438V56.1875L628.402 57.0625V61H612.059Z" fill="white"/>
<path d="M659.503 61.6562C656.732 61.6562 654.065 61.25 651.503 60.4375C648.94 59.625 646.492 58.375 644.159 56.6875V46.9688H648.94L649.971 54.125C651.325 54.9583 652.794 55.6042 654.378 56.0625C655.961 56.5208 657.669 56.75 659.503 56.75C661.586 56.75 663.346 56.4375 664.784 55.8125C666.242 55.1667 667.357 54.2812 668.128 53.1562C668.898 52.0312 669.284 50.7188 669.284 49.2188C669.284 47.8229 668.95 46.5938 668.284 45.5312C667.617 44.4688 666.513 43.5417 664.971 42.75C663.45 41.9375 661.367 41.2292 658.721 40.625C655.596 39.8958 652.95 38.9271 650.784 37.7188C648.638 36.4896 647.003 35.0104 645.878 33.2812C644.773 31.5312 644.221 29.5312 644.221 27.2812C644.221 24.9062 644.846 22.7812 646.096 20.9062C647.367 19.0312 649.128 17.5521 651.378 16.4688C653.628 15.3854 656.253 14.8438 659.253 14.8438C662.44 14.8438 665.253 15.3333 667.69 16.3125C670.148 17.2708 672.169 18.4375 673.753 19.8125V28.9062H668.971L667.94 22.4062C667.003 21.6562 665.836 21.0312 664.44 20.5312C663.044 20.0312 661.315 19.7812 659.253 19.7812C657.503 19.7812 655.961 20.0938 654.628 20.7188C653.294 21.3229 652.253 22.1771 651.503 23.2812C650.753 24.3854 650.378 25.6875 650.378 27.1875C650.378 28.5 650.711 29.6458 651.378 30.625C652.065 31.6042 653.169 32.4688 654.69 33.2188C656.232 33.9479 658.284 34.6354 660.846 35.2812C665.638 36.4688 669.263 38.2292 671.721 40.5625C674.2 42.875 675.44 45.7396 675.44 49.1562C675.44 51.5938 674.784 53.7604 673.471 55.6562C672.159 57.5312 670.305 59 667.909 60.0625C665.534 61.125 662.732 61.6562 659.503 61.6562Z" fill="white"/>
<path d="M407.784 133V129.062L412.878 128.188V92.3438L407.784 91.4688V87.5312H428.065C431.378 87.5312 434.169 88.0312 436.44 89.0312C438.732 90.0104 440.471 91.4375 441.659 93.3125C442.846 95.1875 443.44 97.4792 443.44 100.188C443.44 102.854 442.857 105.094 441.69 106.906C440.544 108.719 438.909 110.094 436.784 111.031C434.659 111.948 432.138 112.438 429.221 112.5L419.034 112.688V128.188L424.128 129.062V133H407.784ZM437.815 133L427.69 110.281L433.846 110.219L442.253 128.406L445.409 128.969V133H437.815ZM419.034 107.844H427.44C430.878 107.844 433.378 107.188 434.94 105.875C436.503 104.562 437.284 102.646 437.284 100.125C437.284 97.7292 436.534 95.8333 435.034 94.4375C433.534 93.0417 431.211 92.3438 428.065 92.3438H419.034V107.844Z" fill="white"/>
<path d="M460.696 133V129.062L465.79 128.188V92.3438L460.696 91.4688V87.5H494.384V98.4375H489.446L488.759 92.25H471.946V107.062H488.728V111.906H471.946V128.375H489.759L490.446 122.094H495.353V133H460.696Z" fill="white"/>
<path d="M511.39 133V128.344L535.046 92.3125H517.359L516.796 98.1875H511.859V87.5H542.14V92.0312L518.359 128.219H537.703L538.265 121.75H543.171V133H511.39Z" fill="white"/>
<path d="M558.146 133V129.062L563.24 128.188V92.3438L558.146 91.4688V87.5H591.834V98.4375H586.896L586.209 92.25H569.396V107.062H586.177V111.906H569.396V128.375H587.209L587.896 122.094H592.802V133H558.146Z" fill="white"/>
<path d="M608.621 133V129.062L613.715 128.188V92.3438L608.621 91.4688V87.5H619.934L642.246 122.969L642.434 122.906V92.3438L636.84 91.4688V87.5H653.184V91.4688L648.09 92.3438V133H642.465L619.559 97.3438L619.371 97.4062V128.188L624.965 129.062V133H608.621Z" fill="white"/>
<path d="M667.909 133V129.062L673.003 128.188V92.3438L667.909 91.4688V87.5H685.721C689.742 87.5 693.242 88.4583 696.221 90.375C699.221 92.2917 701.555 94.9271 703.221 98.2812C704.888 101.635 705.721 105.469 705.721 109.781V110.75C705.721 114.958 704.919 118.75 703.315 122.125C701.711 125.479 699.43 128.135 696.471 130.094C693.534 132.031 690.055 133 686.034 133H667.909ZM679.159 128.188H685.721C688.596 128.188 691.065 127.406 693.128 125.844C695.19 124.26 696.773 122.156 697.878 119.531C699.003 116.885 699.565 113.958 699.565 110.75V109.719C699.565 106.406 699.003 103.448 697.878 100.844C696.773 98.2188 695.19 96.1458 693.128 94.625C691.065 93.1042 688.596 92.3438 685.721 92.3438H679.159V128.188Z" fill="white"/>
<path d="M719.884 133V129.062L724.978 128.188V92.3438L719.884 91.4688V87.5H753.571V98.4375H748.634L747.946 92.25H731.134V107.062H747.915V111.906H731.134V128.375H748.946L749.634 122.094H754.54V133H719.884Z" fill="white"/>
<path d="M406.327 241V239.945H408.417L418.651 212.562H419.94L430.194 239.945H432.284V241H426.249V239.945H429.042L426.249 232.504H412.342L409.569 239.945H412.362V241H406.327ZM412.733 231.449H425.858L419.901 215.434L419.354 213.832H419.237L418.71 215.434L412.733 231.449Z" fill="white"/>
<path d="M441.389 241V239.945H444.573V213.617H441.389V212.562H452.288C454.618 212.562 456.689 213.168 458.499 214.379C460.322 215.577 461.754 217.23 462.795 219.34C463.85 221.449 464.378 223.871 464.378 226.605V226.957C464.378 229.691 463.85 232.113 462.795 234.223C461.754 236.332 460.322 237.992 458.499 239.203C456.689 240.401 454.618 241 452.288 241H441.389ZM445.628 239.945H452.288C454.41 239.945 456.298 239.385 457.952 238.266C459.618 237.133 460.927 235.59 461.878 233.637C462.841 231.671 463.323 229.444 463.323 226.957V226.547C463.323 224.073 462.841 221.866 461.878 219.926C460.927 217.973 459.618 216.436 457.952 215.316C456.298 214.184 454.41 213.617 452.288 213.617H445.628V239.945Z" fill="white"/>
<path d="M486.042 241L475.807 213.617H473.717V212.562H479.948V213.617H476.96L486.12 238.227L486.628 239.77H486.745L487.253 238.227L496.413 213.617H493.424V212.562H499.655V213.617H497.565L487.331 241H486.042Z" fill="white"/>
<path d="M520.831 241.41C519.06 241.41 517.445 241.072 515.987 240.395C514.529 239.704 513.272 238.728 512.217 237.465C511.163 236.189 510.349 234.665 509.776 232.895C509.203 231.124 508.917 229.145 508.917 226.957V226.605C508.917 224.418 509.197 222.439 509.756 220.668C510.329 218.897 511.143 217.38 512.198 216.117C513.253 214.841 514.503 213.865 515.948 213.188C517.406 212.497 519.021 212.152 520.792 212.152C522.549 212.152 524.157 212.497 525.616 213.188C527.074 213.865 528.331 214.841 529.385 216.117C530.453 217.38 531.273 218.897 531.846 220.668C532.419 222.439 532.706 224.418 532.706 226.605V226.957C532.706 229.145 532.419 231.13 531.846 232.914C531.273 234.685 530.46 236.202 529.405 237.465C528.363 238.728 527.113 239.704 525.655 240.395C524.197 241.072 522.588 241.41 520.831 241.41ZM520.831 240.355C523.031 240.355 524.939 239.802 526.553 238.695C528.181 237.589 529.437 236.033 530.323 234.027C531.208 232.009 531.651 229.652 531.651 226.957V226.566C531.651 223.884 531.202 221.54 530.303 219.535C529.418 217.53 528.161 215.974 526.534 214.867C524.906 213.76 522.992 213.207 520.792 213.207C518.604 213.207 516.703 213.76 515.088 214.867C513.474 215.974 512.217 217.53 511.319 219.535C510.433 221.54 509.991 223.884 509.991 226.566V226.957C509.991 229.652 510.433 232.009 511.319 234.027C512.217 236.033 513.474 237.589 515.088 238.695C516.716 239.802 518.63 240.355 520.831 240.355Z" fill="white"/>
<path d="M556.479 241.41C553.888 241.41 551.655 240.805 549.78 239.594C547.918 238.37 546.486 236.671 545.483 234.496C544.48 232.322 543.979 229.802 543.979 226.938V226.195C543.979 223.422 544.506 220.98 545.561 218.871C546.616 216.762 548.061 215.115 549.897 213.93C551.733 212.745 553.823 212.152 556.167 212.152C558.172 212.152 559.871 212.426 561.264 212.973C562.67 213.507 563.96 214.229 565.131 215.141V220.062H564.077V215.688C563.113 214.932 562.026 214.333 560.815 213.891C559.617 213.435 558.068 213.207 556.167 213.207C554.057 213.207 552.163 213.76 550.483 214.867C548.803 215.961 547.475 217.478 546.499 219.418C545.522 221.358 545.034 223.604 545.034 226.156V226.938C545.034 229.581 545.483 231.911 546.381 233.93C547.293 235.948 548.595 237.523 550.288 238.656C551.993 239.789 554.044 240.355 556.44 240.355C558.185 240.355 559.76 240.147 561.167 239.73C562.573 239.301 563.771 238.806 564.76 238.246V229.965H558.608V228.891H565.815V238.832C564.63 239.548 563.282 240.16 561.772 240.668C560.262 241.163 558.497 241.41 556.479 241.41Z" fill="white"/>
<path d="M576.21 241V239.945H578.299L588.534 212.562H589.823L600.077 239.945H602.167V241H596.131V239.945H598.924L596.131 232.504H582.225L579.452 239.945H582.245V241H576.21ZM582.616 231.449H595.741L589.784 215.434L589.237 213.832H589.12L588.592 215.434L582.616 231.449Z" fill="white"/>
<path d="M611.272 241V239.945H614.456V213.617H611.272V212.562H622.17C624.501 212.562 626.572 213.168 628.381 214.379C630.204 215.577 631.637 217.23 632.678 219.34C633.733 221.449 634.26 223.871 634.26 226.605V226.957C634.26 229.691 633.733 232.113 632.678 234.223C631.637 236.332 630.204 237.992 628.381 239.203C626.572 240.401 624.501 241 622.17 241H611.272ZM615.51 239.945H622.17C624.293 239.945 626.181 239.385 627.835 238.266C629.501 237.133 630.81 235.59 631.76 233.637C632.724 231.671 633.206 229.444 633.206 226.957V226.547C633.206 224.073 632.724 221.866 631.76 219.926C630.81 217.973 629.501 216.436 627.835 215.316C626.181 214.184 624.293 213.617 622.17 213.617H615.51V239.945Z" fill="white"/>
<path d="M657.409 241.41C655.638 241.41 654.023 241.072 652.565 240.395C651.107 239.704 649.85 238.728 648.795 237.465C647.741 236.189 646.927 234.665 646.354 232.895C645.781 231.124 645.495 229.145 645.495 226.957V226.605C645.495 224.418 645.775 222.439 646.335 220.668C646.907 218.897 647.721 217.38 648.776 216.117C649.831 214.841 651.081 213.865 652.526 213.188C653.984 212.497 655.599 212.152 657.37 212.152C659.128 212.152 660.736 212.497 662.194 213.188C663.652 213.865 664.909 214.841 665.963 216.117C667.031 217.38 667.851 218.897 668.424 220.668C668.997 222.439 669.284 224.418 669.284 226.605V226.957C669.284 229.145 668.997 231.13 668.424 232.914C667.851 234.685 667.038 236.202 665.983 237.465C664.941 238.728 663.691 239.704 662.233 240.395C660.775 241.072 659.167 241.41 657.409 241.41ZM657.409 240.355C659.609 240.355 661.517 239.802 663.131 238.695C664.759 237.589 666.016 236.033 666.901 234.027C667.786 232.009 668.229 229.652 668.229 226.957V226.566C668.229 223.884 667.78 221.54 666.881 219.535C665.996 217.53 664.739 215.974 663.112 214.867C661.484 213.76 659.57 213.207 657.37 213.207C655.182 213.207 653.281 213.76 651.667 214.867C650.052 215.974 648.795 217.53 647.897 219.535C647.012 221.54 646.569 223.884 646.569 226.566V226.957C646.569 229.652 647.012 232.009 647.897 234.027C648.795 236.033 650.052 237.589 651.667 238.695C653.294 239.802 655.208 240.355 657.409 240.355Z" fill="white"/>
<path d="M689.522 241.41C687.999 241.41 686.41 241.169 684.756 240.688C683.116 240.206 681.521 239.444 679.971 238.402V233.383H681.026V237.797C682.432 238.682 683.858 239.333 685.303 239.75C686.749 240.154 688.155 240.355 689.522 240.355C691.189 240.355 692.667 240.095 693.956 239.574C695.245 239.053 696.254 238.331 696.983 237.406C697.725 236.469 698.096 235.395 698.096 234.184C698.096 232.986 697.81 231.944 697.237 231.059C696.677 230.173 695.759 229.385 694.483 228.695C693.207 228.005 691.488 227.361 689.327 226.762C687.165 226.163 685.447 225.525 684.17 224.848C682.894 224.171 681.976 223.363 681.417 222.426C680.87 221.488 680.596 220.329 680.596 218.949C680.596 217.595 680.961 216.41 681.69 215.395C682.419 214.379 683.441 213.585 684.756 213.012C686.085 212.439 687.628 212.152 689.385 212.152C691.221 212.152 692.875 212.426 694.346 212.973C695.831 213.52 697.126 214.255 698.233 215.18V219.75H697.178V215.766C696.163 214.919 694.991 214.281 693.663 213.852C692.335 213.422 690.909 213.207 689.385 213.207C687.732 213.207 686.325 213.474 685.167 214.008C684.021 214.529 683.148 215.225 682.549 216.098C681.95 216.957 681.651 217.895 681.651 218.91C681.651 219.978 681.866 220.922 682.295 221.742C682.725 222.549 683.513 223.272 684.659 223.91C685.805 224.548 687.458 225.16 689.62 225.746C692.771 226.592 695.147 227.647 696.749 228.91C698.363 230.16 699.17 231.905 699.17 234.145C699.17 235.642 698.747 236.938 697.901 238.031C697.068 239.112 695.922 239.945 694.463 240.531C693.018 241.117 691.371 241.41 689.522 241.41Z" fill="white"/>
<path d="M5.30126 50.3702H15.9038V10.8542H161.688L0 240.047V247.95H174.942V237.412H15.9038L174.942 10.8542H240.248C260.091 10.8542 284.895 16.3605 296.234 28.9166C307.574 41.4726 309.7 59.9579 309.7 65.8872C309.7 71.8164 308.282 88.5578 296.234 101.811C290.565 108.671 271.065 121.499 239.882 121.499H174.942V132.036H238.557C247.061 132.036 252.597 131.184 255.786 130.719L307.219 247.95H336.63V237.412H312.774C297.419 202.186 266.764 133.029 265.063 129.402C274.985 127.658 289.502 119.87 296.234 114.716C302.613 109.833 318.913 95.1846 318.913 65.8872C318.913 38.3336 304.739 23.6849 296.234 16.3605C287.163 8.54784 263.989 0.31665 240.248 0.31665H5.30126V50.3702Z" fill="white"/>
</svg>
