<svg width="755" height="248" viewBox="0 0 755 248" fill="none" xmlns="http://www.w3.org/2000/svg">
<path d="M405 163.683H495V167.683H405V163.683Z" fill="#333333"/>
<path d="M408.065 60.6833V56.0271L431.721 19.9958H414.034L413.471 25.8708H408.534V15.1833H438.815V19.7146L415.034 55.9021H434.378L434.94 49.4333H439.846V60.6833H408.065Z" fill="#333333"/>
<path d="M472.571 61.3396C469.634 61.3396 466.998 60.7771 464.665 59.6521C462.332 58.5271 460.342 56.9438 458.696 54.9021C457.071 52.8396 455.821 50.4021 454.946 47.5896C454.092 44.7771 453.665 41.6729 453.665 38.2771V37.6208C453.665 34.2458 454.092 31.1521 454.946 28.3396C455.821 25.5063 457.071 23.0583 458.696 20.9958C460.342 18.9333 462.332 17.3396 464.665 16.2146C466.998 15.0896 469.634 14.5271 472.571 14.5271C475.675 14.5271 478.405 15.0896 480.759 16.2146C483.113 17.3396 485.082 18.9333 486.665 20.9958C488.269 23.0583 489.478 25.5063 490.29 28.3396C491.103 31.1521 491.509 34.2458 491.509 37.6208V38.2771C491.509 41.6729 491.103 44.7771 490.29 47.5896C489.478 50.4021 488.269 52.8396 486.665 54.9021C485.082 56.9438 483.113 58.5271 480.759 59.6521C478.405 60.7771 475.675 61.3396 472.571 61.3396ZM472.571 56.2146C475.592 56.2146 478.03 55.4646 479.884 53.9646C481.759 52.4646 483.134 50.3708 484.009 47.6833C484.884 44.975 485.321 41.8396 485.321 38.2771V37.5583C485.321 34.0167 484.873 30.9125 483.978 28.2458C483.103 25.5583 481.728 23.4646 479.853 21.9646C477.978 20.4438 475.55 19.6833 472.571 19.6833C469.842 19.6833 467.53 20.4438 465.634 21.9646C463.738 23.4854 462.3 25.5896 461.321 28.2771C460.342 30.9438 459.853 34.0375 459.853 37.5583V38.2771C459.853 41.8188 460.342 44.9438 461.321 47.6521C462.3 50.3396 463.738 52.4438 465.634 53.9646C467.53 55.4646 469.842 56.2146 472.571 56.2146Z" fill="#333333"/>
<path d="M516.203 60.6833V56.7458L521.296 55.8708V19.8396H510.984L510.078 26.1521H505.453V15.1833H543.265V26.1521H538.703L537.765 19.8396H527.453V55.8708L532.546 56.7458V60.6833H516.203Z" fill="#333333"/>
<path d="M569.74 60.6833V56.7458L574.834 55.8708V19.8396H564.521L563.615 26.1521H558.99V15.1833H596.802V26.1521H592.24L591.302 19.8396H580.99V55.8708L586.084 56.7458V60.6833H569.74Z" fill="#333333"/>
<path d="M612.059 60.6833V56.7458L617.152 55.8708V20.0271L612.059 19.1521V15.1833H628.402V19.1521L623.309 20.0271V55.8708L628.402 56.7458V60.6833H612.059Z" fill="#333333"/>
<path d="M659.503 61.3396C656.732 61.3396 654.065 60.9333 651.503 60.1208C648.94 59.3083 646.492 58.0583 644.159 56.3708V46.6521H648.94L649.971 53.8083C651.325 54.6417 652.794 55.2875 654.378 55.7458C655.961 56.2042 657.669 56.4333 659.503 56.4333C661.586 56.4333 663.346 56.1208 664.784 55.4958C666.242 54.85 667.357 53.9646 668.128 52.8396C668.898 51.7146 669.284 50.4021 669.284 48.9021C669.284 47.5063 668.95 46.2771 668.284 45.2146C667.617 44.1521 666.513 43.225 664.971 42.4333C663.45 41.6208 661.367 40.9125 658.721 40.3083C655.596 39.5792 652.95 38.6104 650.784 37.4021C648.638 36.1729 647.003 34.6938 645.878 32.9646C644.773 31.2146 644.221 29.2146 644.221 26.9646C644.221 24.5896 644.846 22.4646 646.096 20.5896C647.367 18.7146 649.128 17.2354 651.378 16.1521C653.628 15.0688 656.253 14.5271 659.253 14.5271C662.44 14.5271 665.253 15.0167 667.69 15.9958C670.148 16.9542 672.169 18.1208 673.753 19.4958V28.5896H668.971L667.94 22.0896C667.003 21.3396 665.836 20.7146 664.44 20.2146C663.044 19.7146 661.315 19.4646 659.253 19.4646C657.503 19.4646 655.961 19.7771 654.628 20.4021C653.294 21.0063 652.253 21.8604 651.503 22.9646C650.753 24.0688 650.378 25.3708 650.378 26.8708C650.378 28.1833 650.711 29.3292 651.378 30.3083C652.065 31.2875 653.169 32.1521 654.69 32.9021C656.232 33.6313 658.284 34.3188 660.846 34.9646C665.638 36.1521 669.263 37.9125 671.721 40.2458C674.2 42.5583 675.44 45.4229 675.44 48.8396C675.44 51.2771 674.784 53.4438 673.471 55.3396C672.159 57.2146 670.305 58.6833 667.909 59.7458C665.534 60.8083 662.732 61.3396 659.503 61.3396Z" fill="#333333"/>
<path d="M407.784 132.683V128.746L412.878 127.871V92.0271L407.784 91.1521V87.2146H428.065C431.378 87.2146 434.169 87.7146 436.44 88.7146C438.732 89.6938 440.471 91.1208 441.659 92.9958C442.846 94.8708 443.44 97.1625 443.44 99.8708C443.44 102.538 442.857 104.777 441.69 106.59C440.544 108.402 438.909 109.777 436.784 110.715C434.659 111.631 432.138 112.121 429.221 112.183L419.034 112.371V127.871L424.128 128.746V132.683H407.784ZM437.815 132.683L427.69 109.965L433.846 109.902L442.253 128.09L445.409 128.652V132.683H437.815ZM419.034 107.527H427.44C430.878 107.527 433.378 106.871 434.94 105.558C436.503 104.246 437.284 102.329 437.284 99.8083C437.284 97.4125 436.534 95.5167 435.034 94.1208C433.534 92.725 431.211 92.0271 428.065 92.0271H419.034V107.527Z" fill="#333333"/>
<path d="M460.696 132.683V128.746L465.79 127.871V92.0271L460.696 91.1521V87.1833H494.384V98.1208H489.446L488.759 91.9333H471.946V106.746H488.728V111.59H471.946V128.058H489.759L490.446 121.777H495.353V132.683H460.696Z" fill="#333333"/>
<path d="M511.39 132.683V128.027L535.046 91.9958H517.359L516.796 97.8708H511.859V87.1833H542.14V91.7146L518.359 127.902H537.703L538.265 121.433H543.171V132.683H511.39Z" fill="#333333"/>
<path d="M558.146 132.683V128.746L563.24 127.871V92.0271L558.146 91.1521V87.1833H591.834V98.1208H586.896L586.209 91.9333H569.396V106.746H586.177V111.59H569.396V128.058H587.209L587.896 121.777H592.802V132.683H558.146Z" fill="#333333"/>
<path d="M608.621 132.683V128.746L613.715 127.871V92.0271L608.621 91.1521V87.1833H619.934L642.246 122.652L642.434 122.59V92.0271L636.84 91.1521V87.1833H653.184V91.1521L648.09 92.0271V132.683H642.465L619.559 97.0271L619.371 97.0896V127.871L624.965 128.746V132.683H608.621Z" fill="#333333"/>
<path d="M667.909 132.683V128.746L673.003 127.871V92.0271L667.909 91.1521V87.1833H685.721C689.742 87.1833 693.242 88.1417 696.221 90.0583C699.221 91.975 701.555 94.6104 703.221 97.9646C704.888 101.319 705.721 105.152 705.721 109.465V110.433C705.721 114.642 704.919 118.433 703.315 121.808C701.711 125.163 699.43 127.819 696.471 129.777C693.534 131.715 690.055 132.683 686.034 132.683H667.909ZM679.159 127.871H685.721C688.596 127.871 691.065 127.09 693.128 125.527C695.19 123.944 696.773 121.84 697.878 119.215C699.003 116.569 699.565 113.642 699.565 110.433V109.402C699.565 106.09 699.003 103.131 697.878 100.527C696.773 97.9021 695.19 95.8292 693.128 94.3083C691.065 92.7875 688.596 92.0271 685.721 92.0271H679.159V127.871Z" fill="#333333"/>
<path d="M719.884 132.683V128.746L724.978 127.871V92.0271L719.884 91.1521V87.1833H753.571V98.1208H748.634L747.946 91.9333H731.134V106.746H747.915V111.59H731.134V128.058H748.946L749.634 121.777H754.54V132.683H719.884Z" fill="#333333"/>
<path d="M406.327 240.683V239.629H408.417L418.651 212.246H419.94L430.194 239.629H432.284V240.683H426.249V239.629H429.042L426.249 232.187H412.342L409.569 239.629H412.362V240.683H406.327ZM412.733 231.133H425.858L419.901 215.117L419.354 213.515H419.237L418.71 215.117L412.733 231.133Z" fill="#333333"/>
<path d="M441.389 240.683V239.629H444.573V213.301H441.389V212.246H452.288C454.618 212.246 456.689 212.851 458.499 214.062C460.322 215.26 461.754 216.914 462.795 219.023C463.85 221.133 464.378 223.554 464.378 226.289V226.64C464.378 229.375 463.85 231.797 462.795 233.906C461.754 236.015 460.322 237.676 458.499 238.886C456.689 240.084 454.618 240.683 452.288 240.683H441.389ZM445.628 239.629H452.288C454.41 239.629 456.298 239.069 457.952 237.949C459.618 236.816 460.927 235.273 461.878 233.32C462.841 231.354 463.323 229.127 463.323 226.64V226.23C463.323 223.756 462.841 221.549 461.878 219.609C460.927 217.656 459.618 216.12 457.952 215C456.298 213.867 454.41 213.301 452.288 213.301H445.628V239.629Z" fill="#333333"/>
<path d="M486.042 240.683L475.807 213.301H473.717V212.246H479.948V213.301H476.96L486.12 237.91L486.628 239.453H486.745L487.253 237.91L496.413 213.301H493.424V212.246H499.655V213.301H497.565L487.331 240.683H486.042Z" fill="#333333"/>
<path d="M520.831 241.094C519.06 241.094 517.445 240.755 515.987 240.078C514.529 239.388 513.272 238.411 512.217 237.148C511.163 235.872 510.349 234.349 509.776 232.578C509.203 230.807 508.917 228.828 508.917 226.64V226.289C508.917 224.101 509.197 222.122 509.756 220.351C510.329 218.58 511.143 217.064 512.198 215.801C513.253 214.524 514.503 213.548 515.948 212.871C517.406 212.181 519.021 211.836 520.792 211.836C522.549 211.836 524.157 212.181 525.616 212.871C527.074 213.548 528.331 214.524 529.385 215.801C530.453 217.064 531.273 218.58 531.846 220.351C532.419 222.122 532.706 224.101 532.706 226.289V226.64C532.706 228.828 532.419 230.814 531.846 232.597C531.273 234.368 530.46 235.885 529.405 237.148C528.363 238.411 527.113 239.388 525.655 240.078C524.197 240.755 522.588 241.094 520.831 241.094ZM520.831 240.039C523.031 240.039 524.939 239.485 526.553 238.379C528.181 237.272 529.437 235.716 530.323 233.711C531.208 231.692 531.651 229.336 531.651 226.64V226.25C531.651 223.567 531.202 221.224 530.303 219.219C529.418 217.213 528.161 215.657 526.534 214.551C524.906 213.444 522.992 212.89 520.792 212.89C518.604 212.89 516.703 213.444 515.088 214.551C513.474 215.657 512.217 217.213 511.319 219.219C510.433 221.224 509.991 223.567 509.991 226.25V226.64C509.991 229.336 510.433 231.692 511.319 233.711C512.217 235.716 513.474 237.272 515.088 238.379C516.716 239.485 518.63 240.039 520.831 240.039Z" fill="#333333"/>
<path d="M556.479 241.094C553.888 241.094 551.655 240.488 549.78 239.277C547.918 238.053 546.486 236.354 545.483 234.179C544.48 232.005 543.979 229.485 543.979 226.621V225.879C543.979 223.105 544.506 220.664 545.561 218.554C546.616 216.445 548.061 214.798 549.897 213.613C551.733 212.428 553.823 211.836 556.167 211.836C558.172 211.836 559.871 212.109 561.264 212.656C562.67 213.19 563.96 213.913 565.131 214.824V219.746H564.077V215.371C563.113 214.616 562.026 214.017 560.815 213.574C559.617 213.118 558.068 212.89 556.167 212.89C554.057 212.89 552.163 213.444 550.483 214.551C548.803 215.644 547.475 217.161 546.499 219.101C545.522 221.041 545.034 223.288 545.034 225.84V226.621C545.034 229.264 545.483 231.595 546.381 233.613C547.293 235.631 548.595 237.207 550.288 238.34C551.993 239.472 554.044 240.039 556.44 240.039C558.185 240.039 559.76 239.83 561.167 239.414C562.573 238.984 563.771 238.489 564.76 237.929V229.648H558.608V228.574H565.815V238.515C564.63 239.232 563.282 239.844 561.772 240.351C560.262 240.846 558.497 241.094 556.479 241.094Z" fill="#333333"/>
<path d="M576.21 240.683V239.629H578.299L588.534 212.246H589.823L600.077 239.629H602.167V240.683H596.131V239.629H598.924L596.131 232.187H582.225L579.452 239.629H582.245V240.683H576.21ZM582.616 231.133H595.741L589.784 215.117L589.237 213.515H589.12L588.592 215.117L582.616 231.133Z" fill="#333333"/>
<path d="M611.272 240.683V239.629H614.456V213.301H611.272V212.246H622.17C624.501 212.246 626.572 212.851 628.381 214.062C630.204 215.26 631.637 216.914 632.678 219.023C633.733 221.133 634.26 223.554 634.26 226.289V226.64C634.26 229.375 633.733 231.797 632.678 233.906C631.637 236.015 630.204 237.676 628.381 238.886C626.572 240.084 624.501 240.683 622.17 240.683H611.272ZM615.51 239.629H622.17C624.293 239.629 626.181 239.069 627.835 237.949C629.501 236.816 630.81 235.273 631.76 233.32C632.724 231.354 633.206 229.127 633.206 226.64V226.23C633.206 223.756 632.724 221.549 631.76 219.609C630.81 217.656 629.501 216.12 627.835 215C626.181 213.867 624.293 213.301 622.17 213.301H615.51V239.629Z" fill="#333333"/>
<path d="M657.409 241.094C655.638 241.094 654.023 240.755 652.565 240.078C651.107 239.388 649.85 238.411 648.795 237.148C647.741 235.872 646.927 234.349 646.354 232.578C645.781 230.807 645.495 228.828 645.495 226.64V226.289C645.495 224.101 645.775 222.122 646.335 220.351C646.907 218.58 647.721 217.064 648.776 215.801C649.831 214.524 651.081 213.548 652.526 212.871C653.984 212.181 655.599 211.836 657.37 211.836C659.128 211.836 660.736 212.181 662.194 212.871C663.652 213.548 664.909 214.524 665.963 215.801C667.031 217.064 667.851 218.58 668.424 220.351C668.997 222.122 669.284 224.101 669.284 226.289V226.64C669.284 228.828 668.997 230.814 668.424 232.597C667.851 234.368 667.038 235.885 665.983 237.148C664.941 238.411 663.691 239.388 662.233 240.078C660.775 240.755 659.167 241.094 657.409 241.094ZM657.409 240.039C659.609 240.039 661.517 239.485 663.131 238.379C664.759 237.272 666.016 235.716 666.901 233.711C667.786 231.692 668.229 229.336 668.229 226.64V226.25C668.229 223.567 667.78 221.224 666.881 219.219C665.996 217.213 664.739 215.657 663.112 214.551C661.484 213.444 659.57 212.89 657.37 212.89C655.182 212.89 653.281 213.444 651.667 214.551C650.052 215.657 648.795 217.213 647.897 219.219C647.012 221.224 646.569 223.567 646.569 226.25V226.64C646.569 229.336 647.012 231.692 647.897 233.711C648.795 235.716 650.052 237.272 651.667 238.379C653.294 239.485 655.208 240.039 657.409 240.039Z" fill="#333333"/>
<path d="M689.522 241.094C687.999 241.094 686.41 240.853 684.756 240.371C683.116 239.889 681.521 239.127 679.971 238.086V233.066H681.026V237.48C682.432 238.366 683.858 239.017 685.303 239.433C686.749 239.837 688.155 240.039 689.522 240.039C691.189 240.039 692.667 239.778 693.956 239.258C695.245 238.737 696.254 238.014 696.983 237.09C697.725 236.152 698.096 235.078 698.096 233.867C698.096 232.669 697.81 231.627 697.237 230.742C696.677 229.857 695.759 229.069 694.483 228.379C693.207 227.689 691.488 227.044 689.327 226.445C687.165 225.846 685.447 225.208 684.17 224.531C682.894 223.854 681.976 223.047 681.417 222.109C680.87 221.172 680.596 220.013 680.596 218.633C680.596 217.278 680.961 216.094 681.69 215.078C682.419 214.062 683.441 213.268 684.756 212.695C686.085 212.122 687.628 211.836 689.385 211.836C691.221 211.836 692.875 212.109 694.346 212.656C695.831 213.203 697.126 213.939 698.233 214.863V219.433H697.178V215.449C696.163 214.603 694.991 213.965 693.663 213.535C692.335 213.105 690.909 212.89 689.385 212.89C687.732 212.89 686.325 213.157 685.167 213.691C684.021 214.212 683.148 214.909 682.549 215.781C681.95 216.64 681.651 217.578 681.651 218.594C681.651 219.661 681.866 220.605 682.295 221.426C682.725 222.233 683.513 222.955 684.659 223.594C685.805 224.232 687.458 224.844 689.62 225.429C692.771 226.276 695.147 227.33 696.749 228.594C698.363 229.844 699.17 231.588 699.17 233.828C699.17 235.325 698.747 236.621 697.901 237.715C697.068 238.795 695.922 239.629 694.463 240.215C693.018 240.801 691.371 241.094 689.522 241.094Z" fill="#333333"/>
<path d="M5.30126 50.0535H15.9038V10.5376H161.688L0 239.73V247.633H174.942V237.096H15.9038L174.942 10.5376H240.248C260.091 10.5376 284.895 16.0438 296.234 28.5999C307.574 41.156 309.7 59.6413 309.7 65.5705C309.7 71.4998 308.282 88.2412 296.234 101.495C290.565 108.354 271.065 121.182 239.882 121.182H174.942V131.72H238.557C247.061 131.72 252.597 130.868 255.786 130.403L307.219 247.633H336.63V237.096H312.774C297.419 201.869 266.764 132.713 265.063 129.085C274.985 127.342 289.502 119.554 296.234 114.4C302.613 109.517 318.913 94.868 318.913 65.5705C318.913 38.0169 304.739 23.3682 296.234 16.0438C287.163 8.23119 263.989 0 240.248 0H5.30126V50.0535Z" fill="#333333"/>
</svg>
